<svg width="32" height="32" viewBox="0 0 32 32" fill="none" xmlns="http://www.w3.org/2000/svg">
<path d="M16 10.9785C14.8954 10.9785 14 11.8739 14 12.9785C14 14.0831 14.8954 14.9785 16 14.9785C17.1046 14.9785 18 14.0831 18 12.9785C18 11.8739 17.1046 10.9785 16 10.9785ZM17.5 12.9785C17.5 13.8056 16.8271 14.4785 16 14.4785C15.5052 14.4785 15.0669 14.2367 14.7936 13.8661C15.4918 13.8424 16.0614 13.3155 16.1472 12.6347C16.3442 12.5545 16.5182 12.4306 16.6591 12.2758C16.8618 12.535 17.1529 12.7203 17.4867 12.7893C17.4946 12.8514 17.5 12.9143 17.5 12.9785Z" fill="#45454E"/>
<path d="M6.95606 12.6235C7.68894 12.6235 8.3279 12.2281 8.67618 11.6402C8.72176 11.6583 8.7711 11.6689 8.82311 11.6689C9.04398 11.6689 9.22302 11.4899 9.22302 11.269C9.22302 11.1488 9.16887 11.0422 9.08489 10.9689C9.23644 10.912 9.34483 10.767 9.34483 10.5955C9.34483 10.4454 9.26108 10.3161 9.1387 10.2477C9.26108 10.1793 9.34483 10.0501 9.34483 9.89992C9.34483 9.70046 9.1984 9.5365 9.00745 9.5063C9.01586 9.47402 9.02175 9.44072 9.02175 9.40579C9.02175 9.18492 8.8427 9.00587 8.62183 9.00587C8.49594 9.00587 8.38503 9.0652 8.31172 9.15611C7.95515 8.82654 7.47989 8.62354 6.95605 8.62354C5.85149 8.62354 4.95605 9.51897 4.95605 10.6235C4.95605 11.7281 5.85149 12.6235 6.95606 12.6235ZM6.34845 10.7386C6.3723 10.6409 6.4574 10.573 6.5576 10.5643C7.18534 10.51 7.41236 10.1931 7.49376 9.99104C7.53153 9.89729 7.62668 9.8385 7.72724 9.84881C7.94025 9.87065 8.09824 9.85135 8.21686 9.81393C8.36754 10.0478 8.45606 10.3253 8.45606 10.6235C8.45606 11.4506 7.78316 12.1235 6.95606 12.1235C6.36319 12.1235 5.8511 11.7769 5.60772 11.2765C6.14272 11.1945 6.30408 10.9204 6.34845 10.7386Z" fill="#45454E"/>
<path d="M23.0249 10.6235C23.0249 11.7281 23.9203 12.6235 25.0249 12.6235C26.1295 12.6235 27.0249 11.7281 27.0249 10.6235C27.0249 9.51897 26.1295 8.62354 25.0249 8.62354C23.9203 8.62354 23.0249 9.51897 23.0249 10.6235ZM24.6299 10.4398C24.7572 10.4398 24.8785 10.3862 24.9643 10.2922L25.1246 10.1166C25.2986 9.92589 25.5966 9.91908 25.7792 10.1016L25.9847 10.3071C26.0696 10.392 26.1848 10.4398 26.3048 10.4398H26.5125C26.5199 10.5001 26.5249 10.5612 26.5249 10.6235C26.5249 11.4506 25.852 12.1235 25.0249 12.1235C24.1978 12.1235 23.5249 11.4506 23.5249 10.6235C23.5249 10.5612 23.5299 10.5001 23.5373 10.4398L24.6299 10.4398Z" fill="#45454E"/>
<path d="M18.5692 21.7333V18.5363C18.5692 18.008 18.7199 17.4906 19.0037 17.0449L21.2981 13.4415C21.5016 13.122 21.4214 12.7211 21.1547 12.4914L21.6016 11.2615C21.6116 11.2497 21.6238 11.2406 21.6316 11.2266C21.6539 11.187 21.6602 11.1443 21.6597 11.1019L24.0617 4.49194C24.0758 4.45314 24.0768 4.41385 24.0719 4.37553C24.0902 4.27901 24.0507 4.17679 23.9633 4.11975C23.8913 4.07275 22.1674 2.96252 19.3518 2.39746C16.757 1.87647 12.7159 1.75024 8.19865 4.10742C8.15277 4.13139 8.12156 4.16963 8.09864 4.21197C8.01545 4.27676 7.97726 4.38751 8.01518 4.49194L10.4886 11.2986C10.493 11.3098 10.4936 11.3217 10.4998 11.3325C10.5004 11.3336 10.5013 11.3343 10.5019 11.3353L10.9047 12.4437C10.5901 12.6616 10.4842 13.0991 10.7022 13.4415L12.9966 17.0449C13.2804 17.4906 13.4311 18.0079 13.4311 18.5363V21.7333L11.6255 27.8585C11.4767 28.3633 11.7479 28.8964 12.2434 29.0734C12.728 29.2465 13.2644 29.0204 13.4789 28.5527L15.705 23.7C15.7579 23.5846 15.8732 23.5106 16.0002 23.5106C16.1271 23.5106 16.2424 23.5846 16.2953 23.7L18.5214 28.5527C18.7359 29.0204 19.2723 29.2465 19.7569 29.0734C20.2524 28.8964 20.5236 28.3633 20.3748 27.8585L18.5692 21.7333ZM23.5445 4.45131L21.2605 10.7365C18.8263 9.44818 15.1395 8.52298 10.8565 10.8471L8.54748 4.4928C16.2099 0.561923 22.5312 3.86411 23.5445 4.45131ZM18.1093 14.6391C17.5561 15.21 16.7951 15.5322 16.0002 15.5322C15.2052 15.5322 14.4442 15.21 13.891 14.6391L11.8514 12.5342C11.7265 12.4052 11.5617 12.3293 11.3894 12.3136L11.0293 11.3225C15.1838 9.03846 18.7532 9.95842 21.088 11.211L20.688 12.3117C20.4885 12.3089 20.2924 12.3861 20.1489 12.5342L18.1093 14.6391Z" fill="#45454E"/>
<path d="M29.9886 9.78402C30.1503 9.33058 29.926 8.83022 29.4799 8.64919C29.0232 8.46388 28.5025 8.68089 28.3125 9.13569L27.0279 12.2116C26.7759 12.8149 26.1861 13.2077 25.5324 13.2077H24.0383C23.0697 13.2077 22.196 13.7896 21.8227 14.6834C21.2231 16.1191 20.3336 18.2472 19.8491 19.3982C19.6609 19.8452 19.8748 20.3589 20.3282 20.5429L20.349 20.5513C20.7892 20.7299 21.2902 20.5122 21.46 20.0685L22.5095 17.3258C22.5633 17.1851 22.7729 17.2303 22.764 17.3806L22.1179 28.3443C22.0878 28.842 22.4834 29.2622 22.982 29.2622C23.4037 29.2622 23.764 28.9584 23.8353 28.5428L24.9434 22.0805C24.9601 21.9831 25.0445 21.9119 25.1433 21.9119C25.2421 21.9119 25.3266 21.9831 25.3433 22.0805L26.4513 28.5428C26.5226 28.9584 26.8829 29.2622 27.3046 29.2622C27.8032 29.2622 28.1988 28.842 28.1688 28.3443L27.5697 18.1793C27.5158 17.2661 27.6465 16.3513 27.9538 15.4896L29.9886 9.78402Z" fill="#45454E"/>
<path d="M15.9999 4.88916C14.2391 4.88916 12.8066 6.32165 12.8066 8.0824C12.8066 8.22046 12.9186 8.3324 13.0566 8.3324C13.1947 8.3324 13.3066 8.22046 13.3066 8.0824C13.3066 6.59729 14.5148 5.38916 15.9999 5.38916C17.485 5.38916 18.6931 6.59729 18.6931 8.0824C18.6931 8.22046 18.8051 8.3324 18.9431 8.3324C19.0812 8.3324 19.1931 8.22046 19.1931 8.0824C19.1931 6.32165 17.7606 4.88916 15.9999 4.88916Z" fill="#45454E"/>
<path d="M16 6.06006C14.8848 6.06006 13.9775 6.96729 13.9775 8.08252C13.9775 8.22058 14.0895 8.33252 14.2275 8.33252C14.3656 8.33252 14.4775 8.22058 14.4775 8.08252C14.4775 7.24304 15.1605 6.56006 16 6.56006C16.8395 6.56006 17.5225 7.24304 17.5225 8.08252C17.5225 8.22058 17.6344 8.33252 17.7725 8.33252C17.9105 8.33252 18.0225 8.22058 18.0225 8.08252C18.0225 6.96728 17.1152 6.06006 16 6.06006Z" fill="#45454E"/>
<path d="M11.9849 8.33276C12.1229 8.33276 12.2349 8.22082 12.2349 8.08276C12.2349 6.00647 13.924 4.31738 16.0002 4.31738C18.0765 4.31738 19.7656 6.00647 19.7656 8.08276C19.7656 8.22082 19.8776 8.33276 20.0156 8.33276C20.1537 8.33276 20.2656 8.22082 20.2656 8.08276C20.2656 5.73083 18.3522 3.81738 16.0002 3.81738C13.6483 3.81738 11.7349 5.73083 11.7349 8.08276C11.7349 8.22082 11.8468 8.33276 11.9849 8.33276Z" fill="#45454E"/>
<path d="M11.8002 19.2776L10.1292 14.8916C9.71807 13.8124 8.68313 13.0991 7.52819 13.0991H6.62359C5.97403 13.0991 5.37508 12.7484 5.0572 12.182L3.45035 9.31861C3.1516 8.78623 2.41048 8.72193 2.02451 9.19492L2.01143 9.21095C1.7949 9.47631 1.74914 9.83451 1.8908 10.1407C2.52869 11.5194 4.26522 15.2834 4.26522 15.2834C4.71659 16.1279 4.67792 17.4945 4.43458 19.0182C4.26432 20.0844 4.25272 20.7874 4.33489 21.7102C4.4965 23.5254 4.69726 26.8379 4.78559 28.3461C4.81145 28.7878 5.17709 29.1317 5.61955 29.1317H5.72279C6.17797 29.1317 6.54937 28.7673 6.55808 28.3123L6.67388 22.2663C6.67741 22.0822 6.82749 21.9348 7.01158 21.9346C7.19544 21.9343 7.3458 22.0811 7.35006 22.2649L7.49009 28.3156C7.50059 28.7693 7.87144 29.1317 8.32531 29.1317C8.76701 29.1317 9.13238 28.7886 9.15919 28.3477C9.24935 26.865 9.44351 23.637 9.53636 21.8237C9.58431 20.887 9.56675 19.8891 9.40692 19.0182C9.17707 17.7659 9.12849 17.5005 9.07168 16.9901L10.2309 19.8901C10.411 20.3408 10.9336 20.5464 11.3725 20.3393C11.7706 20.1515 11.9569 19.6889 11.8002 19.2776Z" fill="#45454E"/>
</svg>
