<svg width="32" height="32" viewBox="0 0 32 32" fill="none" xmlns="http://www.w3.org/2000/svg">
<path d="M16 10.9788C14.8954 10.9788 14 11.8742 14 12.9788C14 14.0833 14.8954 14.9788 16 14.9788C17.1046 14.9788 18 14.0833 18 12.9788C18 11.8742 17.1046 10.9788 16 10.9788ZM17.5 12.9788C17.5 13.8059 16.8271 14.4788 16 14.4788C15.5052 14.4788 15.0669 14.2369 14.7936 13.8663C15.4918 13.8426 16.0614 13.3158 16.1472 12.635C16.3442 12.5547 16.5182 12.4309 16.6591 12.276C16.8618 12.5352 17.1529 12.7206 17.4867 12.7896C17.4946 12.8517 17.5 12.9145 17.5 12.9788Z" fill="#45454E"/>
<path d="M6.9563 12.6238C7.68918 12.6238 8.32814 12.2284 8.67642 11.6404C8.722 11.6585 8.77135 11.6692 8.82335 11.6692C9.04422 11.6692 9.22327 11.4901 9.22327 11.2692C9.22327 11.149 9.16912 11.0424 9.08513 10.9691C9.23668 10.9122 9.34508 10.7672 9.34508 10.5958C9.34508 10.4456 9.26132 10.3163 9.13895 10.248C9.26132 10.1796 9.34508 10.0503 9.34508 9.90016C9.34508 9.7007 9.19864 9.53674 9.00769 9.50655C9.0161 9.47426 9.02199 9.44096 9.02199 9.40604C9.02199 9.18517 8.84294 9.00612 8.62207 9.00612C8.49619 9.00612 8.38527 9.06544 8.31197 9.15636C7.9554 8.82678 7.48013 8.62378 6.9563 8.62378C5.85173 8.62378 4.9563 9.51921 4.9563 10.6238C4.9563 11.7283 5.85173 12.6238 6.9563 12.6238ZM6.3487 10.7389C6.37255 10.6412 6.45764 10.5732 6.55785 10.5646C7.18558 10.5102 7.4126 10.1934 7.49401 9.99129C7.53177 9.89754 7.62693 9.83874 7.72748 9.84906C7.94049 9.87089 8.09848 9.85159 8.21711 9.81418C8.36779 10.048 8.4563 10.3255 8.4563 10.6238C8.4563 11.4509 7.78341 12.1238 6.9563 12.1238C6.36344 12.1238 5.85134 11.7772 5.60796 11.2767C6.14296 11.1947 6.30432 10.9207 6.3487 10.7389Z" fill="#45454E"/>
<path d="M23.0249 10.6238C23.0249 11.7283 23.9203 12.6238 25.0249 12.6238C26.1295 12.6238 27.0249 11.7283 27.0249 10.6238C27.0249 9.51921 26.1295 8.62378 25.0249 8.62378C23.9203 8.62378 23.0249 9.51921 23.0249 10.6238ZM24.6299 10.44C24.7572 10.44 24.8785 10.3864 24.9643 10.2924L25.1246 10.1168C25.2986 9.92613 25.5966 9.91933 25.7792 10.1019L25.9847 10.3074C26.0696 10.3923 26.1848 10.44 26.3048 10.44H26.5125C26.5199 10.5004 26.5249 10.5614 26.5249 10.6238C26.5249 11.4509 25.852 12.1238 25.0249 12.1238C24.1978 12.1238 23.5249 11.4509 23.5249 10.6238C23.5249 10.5614 23.5299 10.5004 23.5373 10.44L24.6299 10.44Z" fill="#45454E"/>
<path d="M18.5691 21.7333V18.5363C18.5691 18.008 18.7198 17.4906 19.0036 17.0449L21.298 13.4415C21.5014 13.122 21.4213 12.7211 21.1546 12.4914L21.6015 11.2615C21.6114 11.2497 21.6237 11.2406 21.6315 11.2266C21.6538 11.187 21.6601 11.1443 21.6596 11.1019L24.0616 4.49194C24.0757 4.45314 24.0767 4.41385 24.0718 4.37553C24.0901 4.27901 24.0506 4.17679 23.9632 4.11975C23.8911 4.07275 22.1673 2.96252 19.3517 2.39746C16.7569 1.87647 12.7157 1.75024 8.19853 4.10742C8.15264 4.13139 8.12144 4.16963 8.09852 4.21197C8.01533 4.27676 7.97714 4.38751 8.01506 4.49194L10.4885 11.2986C10.4929 11.3098 10.4935 11.3217 10.4997 11.3325C10.5003 11.3336 10.5012 11.3343 10.5018 11.3353L10.9046 12.4437C10.59 12.6616 10.484 13.0991 10.7021 13.4415L12.9965 17.0449C13.2803 17.4906 13.431 18.0079 13.431 18.5363V21.7333L11.6254 27.8585C11.4766 28.3633 11.7477 28.8964 12.2433 29.0734C12.7279 29.2465 13.2643 29.0204 13.4788 28.5527L15.7049 23.7C15.7578 23.5846 15.8731 23.5106 16 23.5106C16.127 23.5106 16.2423 23.5846 16.2952 23.7L18.5213 28.5527C18.7358 29.0204 19.2722 29.2465 19.7568 29.0734C20.2523 28.8964 20.5235 28.3633 20.3747 27.8585L18.5691 21.7333ZM23.5443 4.45131L21.2603 10.7365C18.8261 9.44818 15.1394 8.52298 10.8564 10.8471L8.54736 4.4928C16.2098 0.561923 22.5311 3.86411 23.5443 4.45131ZM18.1092 14.6391C17.556 15.21 16.795 15.5322 16 15.5322C15.2051 15.5322 14.4441 15.21 13.8909 14.6391L11.8513 12.5342C11.7264 12.4052 11.5615 12.3293 11.3893 12.3136L11.0291 11.3225C15.1836 9.03846 18.753 9.95842 21.0879 11.211L20.6879 12.3117C20.4884 12.3089 20.2923 12.3861 20.1488 12.5342L18.1092 14.6391Z" fill="#45454E"/>
<path d="M29.9887 9.78378C30.1504 9.33033 29.9261 8.82998 29.48 8.64895C29.0234 8.46363 28.5026 8.68064 28.3126 9.13545L27.028 12.2114C26.776 12.8147 26.1863 13.2075 25.5325 13.2075H24.0384C23.0698 13.2075 22.1961 13.7894 21.8228 14.6832C21.2233 16.1188 20.3338 18.2469 19.8492 19.398C19.661 19.8449 19.8749 20.3586 20.3284 20.5426L20.3491 20.5511C20.7893 20.7297 21.2903 20.512 21.4601 20.0683L22.5096 17.3255C22.5635 17.1849 22.773 17.23 22.7642 17.3804L22.118 28.3441C22.0879 28.8418 22.4835 29.262 22.9821 29.262C23.4038 29.262 23.7641 28.9581 23.8354 28.5425L24.9435 22.0803C24.9602 21.9829 25.0446 21.9117 25.1434 21.9117C25.2422 21.9117 25.3267 21.9829 25.3434 22.0803L26.4515 28.5425C26.5227 28.9581 26.8831 29.262 27.3047 29.262C27.8034 29.262 28.1989 28.8418 28.1689 28.3441L27.5698 18.1791C27.516 17.2658 27.6466 16.3511 27.9539 15.4894L29.9887 9.78378Z" fill="#45454E"/>
<path d="M16 4.8894C14.2393 4.8894 12.8068 6.3219 12.8068 8.08264C12.8068 8.2207 12.9187 8.33264 13.0568 8.33264C13.1948 8.33264 13.3068 8.2207 13.3068 8.08264C13.3068 6.59753 14.5149 5.3894 16 5.3894C17.4851 5.3894 18.6932 6.59753 18.6932 8.08264C18.6932 8.2207 18.8052 8.33264 18.9432 8.33264C19.0813 8.33264 19.1932 8.2207 19.1932 8.08264C19.1932 6.3219 17.7607 4.8894 16 4.8894Z" fill="#45454E"/>
<path d="M16 6.06006C14.8848 6.06006 13.9775 6.96729 13.9775 8.08252C13.9775 8.22058 14.0895 8.33252 14.2275 8.33252C14.3656 8.33252 14.4775 8.22058 14.4775 8.08252C14.4775 7.24304 15.1605 6.56006 16 6.56006C16.8395 6.56006 17.5225 7.24304 17.5225 8.08252C17.5225 8.22058 17.6344 8.33252 17.7725 8.33252C17.9105 8.33252 18.0225 8.22058 18.0225 8.08252C18.0225 6.96728 17.1152 6.06006 16 6.06006Z" fill="#45454E"/>
<path d="M11.9846 8.33252C12.1227 8.33252 12.2346 8.22058 12.2346 8.08252C12.2346 6.00622 13.9237 4.31714 16 4.31714C18.0763 4.31714 19.7654 6.00623 19.7654 8.08252C19.7654 8.22058 19.8773 8.33252 20.0154 8.33252C20.1534 8.33252 20.2654 8.22058 20.2654 8.08252C20.2654 5.73059 18.3519 3.81714 16 3.81714C13.6481 3.81714 11.7346 5.73059 11.7346 8.08252C11.7346 8.22058 11.8466 8.33252 11.9846 8.33252Z" fill="#45454E"/>
<path d="M11.8001 19.2774L10.1291 14.8914C9.71795 13.8121 8.68301 13.0989 7.52807 13.0989H6.62347C5.97391 13.0989 5.37496 12.7482 5.05708 12.1817L3.45023 9.31837C3.15148 8.78599 2.41036 8.72169 2.02439 9.19468L2.01131 9.2107C1.79477 9.47607 1.74901 9.83427 1.89067 10.1404C2.52857 11.5191 4.2651 15.2831 4.2651 15.2831C4.71647 16.1276 4.6778 17.4942 4.43445 19.018C4.2642 20.0841 4.2526 20.7872 4.33477 21.71C4.49637 23.5251 4.69713 26.8376 4.78547 28.3459C4.81133 28.7876 5.17696 29.1315 5.61942 29.1315H5.72266C6.17785 29.1315 6.54925 28.7671 6.55796 28.312L6.67376 22.266C6.67729 22.082 6.82737 21.9346 7.01146 21.9343C7.19532 21.9341 7.34568 22.0808 7.34994 22.2647L7.48997 28.3153C7.50047 28.7691 7.87132 29.1315 8.32519 29.1315C8.76688 29.1315 9.13226 28.7883 9.15907 28.3474C9.24923 26.8648 9.44339 23.6367 9.53624 21.8234C9.58419 20.8868 9.56663 19.8888 9.4068 19.018C9.17695 17.7656 9.12837 17.5002 9.07156 16.9898L10.2308 19.8899C10.4109 20.3405 10.9335 20.5461 11.3724 20.3391C11.7704 20.1513 11.9568 19.6887 11.8001 19.2774Z" fill="#45454E"/>
</svg>
